<mxfile host="Electron" agent="Mozilla/5.0 (Macintosh; Intel Mac OS X 10_15_7) AppleWebKit/537.36 (KHTML, like Gecko) draw.io/26.1.1 Chrome/132.0.6834.210 Electron/34.3.3 Safari/537.36" version="26.1.1">
  <diagram name="Page-1" id="iFNDyQx07EiyHLcinPKG">
    <mxGraphModel dx="1114" dy="923" grid="1" gridSize="10" guides="1" tooltips="1" connect="1" arrows="1" fold="1" page="1" pageScale="1" pageWidth="827" pageHeight="1169" math="0" shadow="0">
      <root>
        <mxCell id="0" />
        <mxCell id="1" parent="0" />
        <mxCell id="ORl79wuxFDf71ensOsVK-6" style="edgeStyle=orthogonalEdgeStyle;rounded=0;orthogonalLoop=1;jettySize=auto;html=1;exitX=0.5;exitY=1;exitDx=0;exitDy=0;entryX=0.25;entryY=0;entryDx=0;entryDy=0;" edge="1" parent="1" source="ORl79wuxFDf71ensOsVK-1" target="ORl79wuxFDf71ensOsVK-2">
          <mxGeometry relative="1" as="geometry" />
        </mxCell>
        <mxCell id="ORl79wuxFDf71ensOsVK-15" value="Snowmelt" style="edgeLabel;html=1;align=center;verticalAlign=middle;resizable=0;points=[];" vertex="1" connectable="0" parent="ORl79wuxFDf71ensOsVK-6">
          <mxGeometry x="-0.2099" y="-1" relative="1" as="geometry">
            <mxPoint as="offset" />
          </mxGeometry>
        </mxCell>
        <mxCell id="ORl79wuxFDf71ensOsVK-1" value="Snow" style="rounded=0;whiteSpace=wrap;html=1;fillColor=#dae8fc;strokeColor=#6c8ebf;" vertex="1" parent="1">
          <mxGeometry x="353" y="200" width="120" height="50" as="geometry" />
        </mxCell>
        <mxCell id="ORl79wuxFDf71ensOsVK-7" style="edgeStyle=orthogonalEdgeStyle;rounded=0;orthogonalLoop=1;jettySize=auto;html=1;exitX=0.5;exitY=1;exitDx=0;exitDy=0;entryX=0.5;entryY=0;entryDx=0;entryDy=0;" edge="1" parent="1" source="ORl79wuxFDf71ensOsVK-2" target="ORl79wuxFDf71ensOsVK-3">
          <mxGeometry relative="1" as="geometry" />
        </mxCell>
        <mxCell id="ORl79wuxFDf71ensOsVK-20" value="Direct Flow" style="edgeLabel;html=1;align=center;verticalAlign=middle;resizable=0;points=[];" vertex="1" connectable="0" parent="ORl79wuxFDf71ensOsVK-7">
          <mxGeometry x="0.2966" y="-1" relative="1" as="geometry">
            <mxPoint x="17" as="offset" />
          </mxGeometry>
        </mxCell>
        <mxCell id="ORl79wuxFDf71ensOsVK-8" style="edgeStyle=orthogonalEdgeStyle;rounded=0;orthogonalLoop=1;jettySize=auto;html=1;exitX=0.5;exitY=1;exitDx=0;exitDy=0;entryX=0.5;entryY=0;entryDx=0;entryDy=0;" edge="1" parent="1" source="ORl79wuxFDf71ensOsVK-2" target="ORl79wuxFDf71ensOsVK-4">
          <mxGeometry relative="1" as="geometry" />
        </mxCell>
        <mxCell id="ORl79wuxFDf71ensOsVK-21" value="Baseflow" style="edgeLabel;html=1;align=center;verticalAlign=middle;resizable=0;points=[];" vertex="1" connectable="0" parent="ORl79wuxFDf71ensOsVK-8">
          <mxGeometry x="0.1613" y="1" relative="1" as="geometry">
            <mxPoint x="-15" as="offset" />
          </mxGeometry>
        </mxCell>
        <mxCell id="ORl79wuxFDf71ensOsVK-2" value="Soil" style="rounded=0;whiteSpace=wrap;html=1;fillColor=#fff2cc;strokeColor=#d6b656;" vertex="1" parent="1">
          <mxGeometry x="370" y="290" width="170" height="50" as="geometry" />
        </mxCell>
        <mxCell id="ORl79wuxFDf71ensOsVK-17" style="edgeStyle=orthogonalEdgeStyle;rounded=0;orthogonalLoop=1;jettySize=auto;html=1;exitX=0.5;exitY=1;exitDx=0;exitDy=0;" edge="1" parent="1" source="ORl79wuxFDf71ensOsVK-3">
          <mxGeometry relative="1" as="geometry">
            <mxPoint x="450" y="500" as="targetPoint" />
          </mxGeometry>
        </mxCell>
        <mxCell id="ORl79wuxFDf71ensOsVK-3" value="Quick Storage Tank" style="rounded=0;whiteSpace=wrap;html=1;fillColor=#f8cecc;strokeColor=#b85450;" vertex="1" parent="1">
          <mxGeometry x="310" y="400" width="120" height="50" as="geometry" />
        </mxCell>
        <mxCell id="ORl79wuxFDf71ensOsVK-18" style="edgeStyle=orthogonalEdgeStyle;rounded=0;orthogonalLoop=1;jettySize=auto;html=1;exitX=0.5;exitY=1;exitDx=0;exitDy=0;" edge="1" parent="1" source="ORl79wuxFDf71ensOsVK-4">
          <mxGeometry relative="1" as="geometry">
            <mxPoint x="460" y="500" as="targetPoint" />
          </mxGeometry>
        </mxCell>
        <mxCell id="ORl79wuxFDf71ensOsVK-4" value="Slow Storage Tank" style="rounded=0;whiteSpace=wrap;html=1;fillColor=#e1d5e7;strokeColor=#9673a6;" vertex="1" parent="1">
          <mxGeometry x="490" y="400" width="120" height="50" as="geometry" />
        </mxCell>
        <mxCell id="ORl79wuxFDf71ensOsVK-9" value="" style="endArrow=classic;html=1;rounded=0;strokeWidth=4;fillColor=#dae8fc;strokeColor=#6c8ebf;" edge="1" parent="1">
          <mxGeometry width="50" height="50" relative="1" as="geometry">
            <mxPoint x="430" y="131" as="sourcePoint" />
            <mxPoint x="430" y="181" as="targetPoint" />
          </mxGeometry>
        </mxCell>
        <mxCell id="ORl79wuxFDf71ensOsVK-13" value="Snow" style="edgeLabel;html=1;align=center;verticalAlign=middle;resizable=0;points=[];" vertex="1" connectable="0" parent="ORl79wuxFDf71ensOsVK-9">
          <mxGeometry x="-0.32" y="1" relative="1" as="geometry">
            <mxPoint as="offset" />
          </mxGeometry>
        </mxCell>
        <mxCell id="ORl79wuxFDf71ensOsVK-11" value="" style="endArrow=classic;html=1;rounded=0;strokeWidth=4;fillColor=#dae8fc;strokeColor=#6c8ebf;" edge="1" parent="1">
          <mxGeometry width="50" height="50" relative="1" as="geometry">
            <mxPoint x="500" y="131" as="sourcePoint" />
            <mxPoint x="500" y="281" as="targetPoint" />
          </mxGeometry>
        </mxCell>
        <mxCell id="ORl79wuxFDf71ensOsVK-14" value="Rainfall" style="edgeLabel;html=1;align=center;verticalAlign=middle;resizable=0;points=[];" vertex="1" connectable="0" parent="ORl79wuxFDf71ensOsVK-11">
          <mxGeometry x="-0.32" y="-1" relative="1" as="geometry">
            <mxPoint as="offset" />
          </mxGeometry>
        </mxCell>
        <mxCell id="ORl79wuxFDf71ensOsVK-12" value="Precipitation" style="rounded=0;whiteSpace=wrap;html=1;strokeColor=none;" vertex="1" parent="1">
          <mxGeometry x="408" y="70" width="120" height="60" as="geometry" />
        </mxCell>
        <mxCell id="ORl79wuxFDf71ensOsVK-16" value="" style="shape=flexArrow;endArrow=classic;html=1;rounded=0;fillColor=#ffe6cc;strokeColor=#d79b00;" edge="1" parent="1">
          <mxGeometry width="50" height="50" relative="1" as="geometry">
            <mxPoint x="454.5" y="500" as="sourcePoint" />
            <mxPoint x="455" y="560" as="targetPoint" />
          </mxGeometry>
        </mxCell>
        <mxCell id="ORl79wuxFDf71ensOsVK-19" value="Streamflow" style="edgeLabel;html=1;align=center;verticalAlign=middle;resizable=0;points=[];" vertex="1" connectable="0" parent="ORl79wuxFDf71ensOsVK-16">
          <mxGeometry x="0.3026" y="4" relative="1" as="geometry">
            <mxPoint x="-4" y="-16" as="offset" />
          </mxGeometry>
        </mxCell>
      </root>
    </mxGraphModel>
  </diagram>
</mxfile>
